<svg xmlns="http://www.w3.org/2000/svg" xmlns:xlink="http://www.w3.org/1999/xlink" width="1080" zoomAndPan="magnify" viewBox="0 0 810 1012.49997" height="1350" preserveAspectRatio="xMidYMid meet" version="1.0"><defs><clipPath id="6e4443306f"><path d="M 366.199219 25.058594 L 684.042969 25.058594 L 684.042969 947.105469 L 366.199219 947.105469 Z M 366.199219 25.058594 " clip-rule="nonzero"/></clipPath><clipPath id="11cfe463d9"><path d="M 115.113281 26 L 427 26 L 427 947.105469 L 115.113281 947.105469 Z M 115.113281 26 " clip-rule="nonzero"/></clipPath></defs><g clip-path="url(#6e4443306f)"><path fill="#ffffff" d="M 557.644531 25.074219 C 545.546875 26.191406 533.144531 33.214844 528.410156 44.796875 C 514.4375 61.058594 508.195312 82.15625 503.6875 102.699219 C 500.976562 116.898438 498.121094 131.484375 501.109375 145.890625 C 498.253906 156.441406 502.183594 166.527344 506.976562 175.726562 C 496.917969 182.363281 483.921875 180.015625 473.792969 186.417969 C 466.234375 189.835938 463.441406 197.902344 458.070312 203.5 C 453.164062 219.507812 448.902344 235.753906 443.78125 251.730469 C 438.023438 268.269531 446.613281 284.578125 448.984375 300.882812 C 455.039062 317.136719 447.34375 333.601562 447.621094 350.441406 C 447.746094 375.582031 451.222656 400.539062 452.824219 425.59375 C 452.621094 446.136719 458.765625 465.910156 462.339844 485.960938 C 462.140625 500.417969 461.800781 514.917969 461.074219 529.382812 C 462.027344 529.277344 462.972656 529.109375 463.933594 529.023438 C 461.246094 549.921875 459.214844 570.898438 456.910156 591.832031 C 453.257812 611.28125 448.171875 630.515625 441.664062 649.199219 C 435.054688 665.222656 424.429688 679.230469 417.964844 695.332031 C 407.753906 721.175781 405.757812 749.191406 400.851562 776.3125 C 396.46875 799.046875 395.210938 823.34375 382.824219 843.589844 C 379.542969 848.121094 382.175781 853.855469 380.09375 858.683594 C 373.464844 879.199219 373.125 901.535156 366.199219 921.722656 L 366.199219 931.941406 C 366.824219 939.515625 374.011719 943.566406 379.730469 947.269531 L 384.203125 947.269531 C 394.207031 944.160156 410.816406 944.121094 411.714844 930.671875 C 413.292969 893.882812 407.105469 854.457031 424.390625 820.355469 C 437.628906 794.289062 447.4375 766.445312 463.25 741.726562 C 475.355469 720.613281 473.210938 694.269531 487.035156 674.074219 C 502.488281 650.050781 506.289062 621 517.894531 595.195312 C 526.761719 569.691406 543.816406 547.691406 551.429688 521.773438 C 554.699219 514.429688 557.730469 506.976562 560.933594 499.609375 C 568.671875 500.335938 576.386719 501.582031 584.207031 501.089844 C 583.433594 516.289062 588.515625 530.859375 590.984375 545.683594 C 597.988281 577.710938 594.085938 610.953125 599.429688 643.097656 C 609.625 666.507812 599.289062 692.25 605.972656 716.367188 C 611.371094 734.40625 613.027344 753.207031 616.023438 771.71875 C 618.195312 788.832031 622.371094 806.121094 619.140625 823.394531 C 618.449219 849.765625 622.03125 876.066406 621.972656 902.539062 C 621.835938 915.617188 637.992188 916.050781 647.417969 918.300781 C 661.761719 918.617188 670.566406 900.667969 662.464844 889.132812 C 659.367188 871.0625 654.851562 853.195312 649.625 835.597656 C 649.777344 830.636719 651.046875 825.582031 649.695312 820.660156 C 645.429688 802.164062 650.792969 783.417969 652.765625 764.980469 C 655.753906 737.148438 663.113281 709.320312 659.433594 681.1875 C 656.867188 663.039062 648.980469 645.636719 650.460938 626.972656 C 649.441406 589.910156 660.894531 554.371094 666.304688 518.0625 C 669.476562 506.367188 676.589844 495.957031 679.578125 484.171875 C 680.402344 474.375 683.808594 465.203125 684.3125 455.394531 L 684.3125 444.476562 C 674.984375 412.859375 672.207031 379.746094 664.871094 347.675781 C 661.921875 334.917969 651.4375 322.347656 656.453125 309.210938 C 657.167969 294.0625 664.070312 279.625 662.863281 264.367188 C 660.265625 248.59375 651.824219 234.632812 647.390625 219.386719 C 642.960938 201.726562 628.011719 186.085938 608.992188 185.183594 C 610.414062 175.925781 607.925781 166.589844 608.761719 157.339844 C 611.300781 162.976562 609.277344 172.808594 613.710938 175.59375 C 614.753906 169.679688 618.859375 164.34375 622.457031 159.320312 C 622.679688 136.960938 621.4375 113.460938 613.003906 92.660156 C 614.796875 87.648438 614.0625 81.398438 609.324219 78.285156 C 607.367188 72.390625 608.972656 65.71875 607.027344 59.691406 C 604.707031 49.53125 595.863281 43.152344 590.136719 35.015625 C 582.160156 29.257812 572.390625 26.386719 562.703125 25.070312 L 557.644531 25.070312 Z M 609.496094 281.625 C 612 290.25 614.371094 299.25 616.886719 307.992188 C 616.816406 314.792969 618.328125 321.753906 621.828125 327.617188 C 624.152344 337.511719 624.019531 347.8125 626.675781 357.652344 C 626.953125 358.796875 625.554688 357.5 625.488281 357.058594 C 622.609375 347.886719 613.761719 342.15625 610.773438 333 C 605.753906 316.234375 610.199219 297.292969 609.496094 281.621094 Z M 485.480469 317.820312 C 490.945312 335.28125 500.257812 352.363281 498.03125 371.289062 C 495.507812 387.976562 496.21875 405.027344 490.886719 421.234375 C 484.035156 427.675781 480.117188 437.734375 476.652344 445.09375 C 471.367188 409.988281 485.925781 374.933594 483.4375 339.550781 C 482.320312 332.210938 484.003906 324.957031 485.480469 317.820312 Z M 485.480469 317.820312 " fill-opacity="1" fill-rule="nonzero"/></g><g clip-path="url(#11cfe463d9)"><path fill="#ffffff" d="M 426.289062 290.8125 C 425.945312 289.355469 425.515625 287.925781 425.011719 286.515625 C 422.699219 280.191406 419.777344 274.117188 417.046875 267.964844 C 406.949219 244.71875 395.3125 222.269531 382.132812 200.621094 C 374.058594 187.628906 364.191406 176.324219 350.105469 169.390625 C 344.460938 166.753906 338.699219 164.40625 332.820312 162.347656 C 324.1875 159.398438 315.339844 157.410156 306.273438 156.382812 C 303.015625 156.066406 299.917969 155.183594 296.980469 153.738281 C 294.046875 152.289062 291.457031 150.371094 289.222656 147.980469 C 283.070312 141.1875 282.476562 133.273438 284.539062 124.855469 C 284.601562 124.523438 284.71875 124.210938 284.882812 123.917969 C 285.050781 123.621094 285.257812 123.363281 285.507812 123.136719 C 285.757812 122.910156 286.039062 122.726562 286.347656 122.589844 C 286.65625 122.457031 286.980469 122.371094 287.316406 122.339844 C 288.8125 122.054688 290.1875 121.484375 291.449219 120.628906 C 292.707031 119.773438 293.746094 118.707031 294.5625 117.421875 C 297.53125 113.207031 299.902344 108.679688 300.105469 103.371094 C 300.164062 102.375 300.445312 101.449219 300.949219 100.589844 C 303.003906 96.710938 304.453125 92.617188 305.292969 88.308594 C 306.132812 84 306.332031 79.660156 305.882812 75.292969 C 304.476562 64.828125 301.5 54.828125 296.953125 45.296875 C 294.644531 40.210938 291.359375 35.859375 287.097656 32.242188 C 280.851562 26.917969 274.027344 25.074219 266.316406 28.558594 C 264.589844 29.355469 262.78125 29.78125 260.882812 29.835938 C 258.984375 29.890625 257.152344 29.566406 255.382812 28.871094 C 252.210938 27.664062 248.925781 26.996094 245.53125 26.855469 C 243.78125 26.820312 242.042969 26.9375 240.316406 27.210938 C 238.585938 27.488281 236.894531 27.914062 235.246094 28.492188 C 233.59375 29.070312 232.007812 29.792969 230.484375 30.65625 C 228.960938 31.519531 227.527344 32.511719 226.183594 33.632812 C 213.691406 43.5 206.417969 56.601562 202.589844 71.75 C 201.976562 74.175781 201.578125 76.640625 201.386719 79.136719 C 201.199219 81.636719 201.222656 84.128906 201.460938 86.625 C 201.703125 89.117188 202.152344 91.570312 202.8125 93.988281 C 203.476562 96.402344 204.335938 98.742188 205.402344 101.011719 C 206.5625 103.492188 207.496094 106.058594 208.195312 108.710938 C 208.929688 111.707031 210.351562 114.628906 213.332031 115.671875 C 216.925781 116.9375 218.222656 119.3125 218.75 122.761719 C 219.203125 124.578125 219.808594 126.34375 220.5625 128.054688 C 221.03125 129.21875 221.339844 130.421875 221.484375 131.664062 C 222.171875 140.1875 222.078125 148.621094 219.015625 156.789062 C 218.253906 158.648438 217.734375 160.574219 217.457031 162.566406 C 217.472656 162.933594 217.410156 163.292969 217.269531 163.632812 C 217.128906 163.976562 216.925781 164.277344 216.65625 164.527344 C 216.386719 164.78125 216.074219 164.96875 215.722656 165.085938 C 215.371094 165.203125 215.011719 165.242188 214.644531 165.203125 C 209.90625 165.582031 205.273438 166.496094 200.746094 167.953125 C 193.050781 170.25 186.695312 174.808594 180.605469 179.867188 C 173.277344 185.957031 166.734375 192.800781 160.976562 200.394531 C 155.222656 207.988281 150.402344 216.136719 146.515625 224.839844 C 134.609375 251.796875 124.875 279.519531 117.316406 308.003906 C 116.597656 310.640625 116.191406 313.359375 115.753906 316.0625 C 115.582031 317.027344 115.394531 318.074219 116.660156 318.589844 C 119.503906 319.777344 121.796875 321.902344 124.484375 323.460938 C 131.753906 327.894531 139.457031 331.367188 147.59375 333.878906 C 147.796875 333.894531 147.996094 333.9375 148.1875 334 C 148.382812 334.066406 148.566406 334.148438 148.738281 334.253906 C 148.914062 334.359375 149.074219 334.484375 149.21875 334.625 C 149.367188 334.765625 149.496094 334.921875 149.605469 335.089844 C 149.71875 335.261719 149.808594 335.441406 149.878906 335.632812 C 149.949219 335.824219 149.996094 336.019531 150.023438 336.222656 C 150.046875 336.425781 150.050781 336.625 150.03125 336.828125 C 150.011719 337.03125 149.96875 337.230469 149.90625 337.421875 C 149.59375 339.765625 149.421875 342.105469 149.15625 344.496094 C 148.21875 352.679688 146.625 360.8125 146.546875 369.058594 C 146.359375 385.78125 146.40625 402.519531 146.40625 419.246094 C 146.40625 423.367188 146.40625 427.503906 146.734375 431.613281 C 147.984375 446.164062 148.671875 460.75 149.5625 475.332031 C 150.25 486.53125 151.421875 497.710938 152.261719 508.90625 C 153.058594 519.507812 152.261719 530.125 152.261719 540.730469 C 152.339844 554.90625 155.589844 568.164062 163.789062 579.953125 C 164.847656 581.515625 165.785156 583.078125 166.910156 584.636719 C 167.28125 585.136719 167.53125 585.691406 167.65625 586.300781 C 167.78125 586.910156 167.773438 587.515625 167.628906 588.121094 C 166.441406 595.132812 165.769531 602.175781 164.972656 609.277344 C 163.601562 621.769531 162.335938 634.339844 161.585938 646.925781 C 161.507812 648.097656 161.882812 649.410156 160.023438 649.847656 C 159.226562 650.035156 159.554688 650.847656 160.023438 651.328125 C 160.492188 651.8125 161.195312 652.0625 161.335938 652.546875 C 162.210938 655.484375 164.457031 655.671875 166.972656 655.765625 C 169.582031 655.675781 172.183594 655.761719 174.78125 656.015625 C 183.429688 657.246094 192.050781 658.574219 200.746094 659.386719 C 206.835938 659.96875 212.917969 660.617188 218.984375 661.324219 C 221.65625 661.621094 221.65625 661.699219 221.65625 664.445312 C 221.65625 673.066406 221.03125 681.621094 220.90625 690.289062 C 220.53125 714.257812 224.03125 737.835938 229.339844 761.132812 C 234.554688 783.996094 241.082031 806.527344 247.796875 828.980469 C 249.160156 833.035156 249.808594 837.199219 249.746094 841.472656 C 249.589844 849.59375 248.875 857.667969 247.609375 865.691406 C 247.09375 868.8125 246.269531 871.84375 245.132812 874.792969 C 243.996094 877.742188 242.570312 880.542969 240.855469 883.199219 C 239.140625 885.855469 237.175781 888.308594 234.957031 890.558594 C 232.738281 892.808594 230.3125 894.8125 227.683594 896.5625 C 223.65625 899.3125 219.875 902.339844 215.597656 904.746094 C 214.613281 905.289062 213.695312 905.929688 212.847656 906.667969 C 212 907.40625 211.242188 908.226562 210.566406 909.125 C 209.894531 910.027344 209.324219 910.988281 208.855469 912.011719 C 208.386719 913.035156 208.03125 914.09375 207.789062 915.191406 C 207.261719 917.632812 206.917969 920.101562 206.757812 922.59375 C 206.339844 926.480469 207.820312 929.074219 211.632812 930.277344 C 212.691406 930.605469 213.722656 931.054688 214.753906 931.382812 C 221.222656 933.429688 227.847656 934.445312 234.632812 934.429688 C 236.492188 934.429688 238.660156 933.710938 239.425781 936.476562 C 239.535156 936.882812 240.425781 937.160156 240.988281 937.347656 C 245.84375 938.910156 250.714844 940.472656 255.617188 941.816406 C 265.878906 944.75 276.480469 945.265625 287.035156 946.125 C 300.121094 947.1875 313.238281 947.25 326.339844 947.328125 C 330.710938 947.328125 335.082031 947.328125 339.457031 947.328125 C 344.953125 947.328125 350.386719 947.203125 355.929688 946.984375 C 364.519531 946.625 365.96875 944.953125 365.546875 936.320312 C 365.585938 935.121094 365.40625 933.960938 365.007812 932.832031 C 364.609375 931.703125 364.019531 930.683594 363.238281 929.777344 C 360.925781 927.066406 358.117188 925.035156 354.820312 923.6875 C 351.417969 922.5 348.183594 921 344.921875 919.546875 C 340.617188 917.667969 336.578125 915.324219 332.808594 912.523438 C 329.039062 909.71875 325.632812 906.527344 322.589844 902.949219 C 314.785156 893.722656 310.097656 882.914062 306.820312 871.390625 C 305.429688 866.347656 304.148438 861.257812 302.855469 856.199219 C 302.53125 855.230469 302.402344 854.234375 302.460938 853.214844 C 302.519531 852.195312 302.765625 851.222656 303.199219 850.296875 C 304.890625 846.40625 306.335938 842.429688 307.539062 838.367188 C 315.566406 813.523438 320.640625 787.929688 326.917969 762.648438 C 329.679688 752.253906 331.636719 741.707031 332.789062 731.011719 C 333.289062 725.546875 333.679688 720.082031 334.347656 714.632812 C 335.832031 702.484375 337.472656 690.382812 338.957031 678.234375 C 339.175781 676.515625 339.488281 675.609375 341.375 675.34375 C 344.464844 674.730469 347.335938 673.582031 349.996094 671.894531 C 354.847656 669.011719 359.277344 665.582031 363.285156 661.605469 C 364.484375 660.582031 365.410156 659.355469 366.0625 657.921875 C 366.714844 656.488281 367.035156 654.980469 367.015625 653.40625 C 367.015625 650.535156 367.109375 647.660156 367.25 644.789062 C 368.25 629.804688 368.035156 614.839844 366.609375 599.894531 C 365.167969 587.964844 364.453125 575.996094 364.472656 563.980469 C 364.640625 549.003906 364.6875 534.015625 364.75 519.023438 C 364.800781 516.027344 364.609375 513.042969 364.175781 510.078125 C 363.015625 504.15625 360.976562 498.554688 358.054688 493.273438 C 357.523438 492.230469 356.742188 491.339844 357.320312 489.839844 C 359.410156 484.5 361.035156 479.003906 363.238281 473.710938 C 370.375 455.941406 375.582031 437.625 378.851562 418.761719 C 381.054688 406.988281 382.554688 395.105469 383.863281 383.207031 C 385.175781 371.304688 386.097656 359.609375 386.988281 347.789062 C 387.621094 341.445312 387.824219 335.082031 387.597656 328.707031 C 387.554688 328.496094 387.539062 328.28125 387.542969 328.0625 C 387.546875 327.847656 387.574219 327.632812 387.625 327.421875 C 387.675781 327.207031 387.746094 327.003906 387.839844 326.808594 C 387.929688 326.609375 388.042969 326.425781 388.171875 326.253906 C 388.304688 326.078125 388.449219 325.921875 388.613281 325.777344 C 388.777344 325.636719 388.953125 325.511719 389.144531 325.40625 C 389.335938 325.300781 389.53125 325.214844 389.742188 325.152344 C 389.949219 325.085938 390.160156 325.042969 390.375 325.023438 C 393.097656 324.058594 395.628906 322.726562 397.964844 321.027344 C 405.308594 316.257812 412.257812 310.96875 418.8125 305.160156 C 420.246094 303.953125 421.546875 302.617188 422.714844 301.148438 C 424.917969 298.132812 427.257812 295.074219 426.289062 290.8125 Z M 277.355469 710.855469 C 276.089844 702.84375 273.808594 695.769531 272.265625 688.507812 C 271.0625 682.824219 271.453125 677.171875 272.015625 670.707031 C 272.992188 672.46875 274.308594 673.917969 275.964844 675.066406 C 277.917969 676.140625 279.476562 674.582031 281.242188 674.191406 C 282.148438 686.496094 281.726562 698.519531 277.292969 710.839844 Z M 277.355469 710.855469 " fill-opacity="1" fill-rule="nonzero"/></g><path fill="#ffffff" d="M 395.125 318.59375 C 400.550781 317.6875 432.648438 312.679688 467.800781 325.171875 C 488.621094 332.570312 500.96875 341.25 507.984375 359.683594 C 514.808594 377.597656 512.476562 397.46875 505.417969 415.0625 C 496.101562 438.292969 479.269531 458.726562 464.421875 479.808594 C 445.148438 507.160156 438.175781 524.621094 435.273438 548.296875 C 431.722656 577.246094 441.210938 591.714844 428.003906 602.914062 C 417.324219 611.972656 397.738281 613.855469 383.445312 608.28125 C 368.742188 602.554688 363.160156 590.316406 358.941406 580.632812 C 356.140625 574.21875 344.941406 546.261719 360.085938 507.53125 C 373.542969 473.097656 402.945312 442.628906 405.941406 439.554688 C 419.75 425.445312 435.171875 413.222656 433.515625 396.816406 C 433.324219 394.914062 432.058594 382.636719 422.980469 379.417969 C 418.960938 377.992188 413.847656 378.253906 407.722656 380.925781 C 402.640625 383.132812 398.519531 386.621094 394.675781 390.183594 C 386.667969 397.625 379.382812 405.746094 370.023438 411.949219 C 360.664062 418.15625 348.535156 422.339844 336.878906 420.292969 C 320.460938 417.421875 311.792969 399.660156 310.820312 386.78125 C 309.371094 367.78125 324.789062 353.992188 334.136719 345.632812 C 356.808594 325.355469 384.859375 320.316406 395.125 318.59375 Z M 395.125 318.59375 " fill-opacity="1" fill-rule="nonzero"/><path fill="#ffffff" d="M 375.394531 653.6875 C 367.492188 662.351562 363.550781 673.859375 366.386719 684.53125 C 369.222656 695.207031 379.367188 704.585938 392.074219 706.679688 C 401.886719 708.292969 412.105469 705.632812 420.707031 701.316406 C 431.101562 696.09375 439.855469 688.242188 444.183594 678.703125 C 448.507812 669.164062 448.058594 657.925781 441.859375 649.15625 C 425.171875 625.542969 391.609375 635.898438 375.394531 653.6875 Z M 375.394531 653.6875 " fill-opacity="1" fill-rule="nonzero"/><path fill="#ffde59" d="M 380.964844 309.621094 C 386.386719 308.714844 418.484375 303.707031 453.640625 316.199219 C 474.453125 323.589844 486.800781 332.277344 493.820312 350.707031 C 500.644531 368.625 498.3125 388.496094 491.253906 406.089844 C 481.9375 429.320312 465.109375 449.753906 450.261719 470.832031 C 430.988281 498.195312 424.011719 515.648438 421.109375 539.324219 C 417.558594 568.273438 427.046875 582.738281 413.84375 593.9375 C 403.160156 602.996094 383.574219 604.878906 369.28125 599.308594 C 354.582031 593.578125 349 581.339844 344.78125 571.660156 C 341.980469 565.246094 330.78125 537.285156 345.925781 498.554688 C 359.378906 464.132812 388.769531 433.664062 391.78125 430.589844 C 405.585938 416.472656 421.011719 404.25 419.347656 387.851562 C 419.15625 385.949219 417.890625 373.667969 408.8125 370.449219 C 404.796875 369.023438 399.679688 369.289062 393.558594 371.957031 C 388.476562 374.164062 384.351562 377.65625 380.507812 381.21875 C 372.5 388.660156 365.214844 396.777344 355.855469 402.984375 C 346.496094 409.191406 334.367188 413.367188 322.710938 411.328125 C 306.296875 408.457031 297.632812 390.695312 296.648438 377.8125 C 295.203125 358.816406 310.617188 345.027344 319.96875 336.664062 C 342.644531 316.382812 370.691406 311.34375 380.964844 309.621094 Z M 380.964844 309.621094 " fill-opacity="1" fill-rule="nonzero"/><path fill="#ffde59" d="M 361.230469 644.710938 C 353.328125 653.375 349.386719 664.882812 352.222656 675.558594 C 355.058594 686.230469 365.203125 695.613281 377.910156 697.707031 C 387.722656 699.320312 397.941406 696.660156 406.542969 692.34375 C 416.9375 687.121094 425.695312 679.269531 430.019531 669.730469 C 434.34375 660.191406 433.894531 648.949219 427.699219 640.179688 C 411.011719 616.578125 377.449219 626.929688 361.230469 644.710938 Z M 361.230469 644.710938 " fill-opacity="1" fill-rule="nonzero"/></svg>